<svg width="29" height="29" viewBox="0 0 29 29" fill="none" xmlns="http://www.w3.org/2000/svg">
<path d="M14.5 27.7999C21.8454 27.7999 27.8 21.8453 27.8 14.4999C27.8 7.15455 21.8454 1.19995 14.5 1.19995C7.15461 1.19995 1.20001 7.15455 1.20001 14.4999C1.20001 21.8453 7.15461 27.7999 14.5 27.7999Z" stroke="white" stroke-width="2.0708" stroke-miterlimit="10"/>
<path d="M12.8136 4.00954C11.9449 4.15401 11.1842 4.41198 10.4631 4.79378C9.88973 5.10334 9.40716 5.51094 9.40716 5.68636C9.40716 5.75343 9.63425 6.28485 9.91812 6.85755C10.4291 7.89976 10.4291 7.89976 10.4291 8.32799C10.4291 8.7459 10.4234 8.76138 10.2588 8.87489C10.0317 9.02451 9.42986 10.1441 9.15735 10.9283C8.91322 11.6145 8.69748 12.5794 8.61232 13.312C8.48742 14.4626 8.5669 16.062 8.81103 17.2125C8.85645 17.4396 8.89619 17.8471 8.89619 18.1206C8.89619 19.1783 9.16303 19.9832 9.73644 20.6281L9.9238 20.8448L9.79322 20.917C9.71941 20.9583 9.4469 21.0563 9.18574 21.1337C8.56123 21.3194 8.21491 21.6032 8.07297 22.0572C7.89697 22.6145 8.04459 23.151 8.45903 23.4503C8.65774 23.5948 8.72587 23.6102 9.12329 23.6257C9.54341 23.6464 9.58315 23.636 9.71373 23.5122C10.026 23.2336 9.81025 22.8105 9.35606 22.8105C9.0949 22.8105 8.95297 22.7692 8.95297 22.697C8.95297 22.6041 9.73644 22.6867 10.5597 22.8673C11.3602 23.0427 11.4056 23.0685 11.2807 23.28C11.2466 23.3316 11.2182 23.4606 11.2126 23.5638C11.2069 23.7134 11.2409 23.7805 11.3602 23.8785C11.5078 23.992 11.5475 23.9972 12.5184 23.9972C13.7276 23.9972 17.6166 23.8682 18.7067 23.7908C20.5405 23.6618 21.6589 23.4812 22.0507 23.2594C22.8114 22.8208 23.1748 21.9541 22.9534 21.0976C22.8228 20.5868 22.6922 20.3753 21.9598 19.4466L21.2956 18.6056L20.1771 18.2186C18.8997 17.7749 18.7748 17.6975 17.645 16.6656C15.8623 15.0507 14.9256 13.6216 14.091 11.2534C13.8412 10.5569 13.7844 10.4434 13.4892 10.0822C13.3075 9.86034 13.2678 9.77263 13.2678 9.57657C13.2678 9.29796 13.2905 9.2928 13.8469 9.45791C14.2045 9.56109 14.2556 9.56625 14.3919 9.49918C14.9256 9.23089 15.2605 7.54892 15.0788 6.05268C15.0164 5.52642 14.7723 4.43262 14.6814 4.27267C14.5565 4.07146 14.3749 4.01986 13.6538 4.00438C13.2678 3.99407 12.8931 3.99407 12.8136 4.00954ZM13.9434 5.04659C14.0285 5.3252 14.0229 5.36647 13.8809 5.39227C12.6944 5.62961 12.0415 5.8721 11.1558 6.41384L10.8265 6.6099L10.6562 6.26422C10.5597 6.07332 10.4915 5.88758 10.4972 5.8463C10.5199 5.74311 11.2637 5.34584 11.7746 5.15494C12.3537 4.94856 12.8022 4.86601 13.3927 4.86085L13.8866 4.85569L13.9434 5.04659ZM14.1648 7.08457C14.1307 8.09582 14.0058 8.60144 13.8128 8.54469C13.2678 8.39506 12.7965 8.50341 12.524 8.84393C12.4332 8.95744 12.3594 9.08127 12.3594 9.12254C12.3594 9.21025 12.3367 9.21025 12.0869 9.09159C11.9733 9.03999 11.7689 8.96776 11.6327 8.9368L11.3942 8.87489V8.34863C11.3886 8.04422 11.3545 7.73981 11.3148 7.62631C11.2409 7.44057 11.2409 7.43025 11.3999 7.31158C12.0301 6.83175 13.4324 6.26422 14.0285 6.2539L14.1932 6.24874L14.1648 7.08457ZM11.2409 9.73136C11.8995 9.88614 12.5297 10.2886 12.8533 10.7581C12.9328 10.8664 13.1429 11.3669 13.3245 11.8674C13.8412 13.2862 14.3294 14.2201 15.1527 15.3139C15.8055 16.1858 17.0092 17.3828 17.9516 18.1051L18.2355 18.3167L18.0651 18.6056C17.9686 18.7604 17.8721 18.8894 17.838 18.8894C17.7359 18.8894 16.9467 18.4766 16.4187 18.1516C14.5792 17.0216 13.1429 15.6441 12.0131 13.926C11.7746 13.5648 11.5532 13.2862 11.4737 13.2552C11.1955 13.1366 10.8265 13.3533 10.8265 13.6319C10.8265 13.9002 11.7973 15.2984 12.5808 16.1549C12.8022 16.3973 12.9839 16.6089 12.9839 16.6295C12.9839 16.6553 12.8022 16.6708 12.5865 16.6708C12.0642 16.6708 11.2409 16.7895 10.4348 16.9855C10.0828 17.0681 9.77618 17.13 9.75915 17.1145C9.70238 17.0578 9.57748 16.2013 9.52638 15.4325C9.38445 13.5235 9.74212 11.6145 10.5142 10.1286C10.6505 9.87066 10.7981 9.65396 10.8379 9.65396C10.8833 9.65396 11.0649 9.69008 11.2409 9.73136ZM14.5849 17.9865C15.3059 18.5385 16.4017 19.2041 17.1568 19.5446C17.469 19.6891 18.1844 19.9728 18.7464 20.1792C19.6548 20.5146 19.8081 20.5558 20.109 20.5507C20.3247 20.5455 20.7165 20.6023 21.1707 20.7003L21.8917 20.8603L21.9768 21.0976C22.1812 21.6393 22.0336 22.212 21.6249 22.4648C21.3864 22.6196 21.1025 22.6815 20.2453 22.7847C18.2355 23.0272 12.3026 23.2284 12.3764 23.053C12.3878 23.0221 12.5638 22.5938 12.7625 22.1037L13.1258 21.2214L13.3529 21.1905C13.8809 21.1182 15.9305 21.0976 17.0546 21.1543C18.3547 21.2163 18.4796 21.2008 18.5988 20.9686C18.6953 20.7829 18.6726 20.6642 18.5307 20.5094C18.4058 20.3804 18.3547 20.365 17.7472 20.3237C16.7537 20.2514 14.0626 20.2566 13.3586 20.3288C13.018 20.3598 12.666 20.4269 12.5751 20.4681C12.4105 20.5455 12.4048 20.5455 12.1153 20.2772C11.6497 19.8438 11.2807 19.7665 10.8038 19.9986C10.6562 20.0709 10.5086 20.1173 10.4802 20.0967C10.378 20.0399 10.1339 19.6478 10.0203 19.3589C9.95786 19.1886 9.90109 18.8584 9.87838 18.554L9.84431 18.0329L10.3496 17.8936C11.3999 17.6047 12.2572 17.4963 13.2791 17.5221L14.0001 17.5376L14.5849 17.9865ZM19.9273 19.0493C20.6597 19.2969 20.7222 19.3331 20.8754 19.5343L21.0401 19.751L20.5178 19.7252C20.0863 19.7045 19.8989 19.6684 19.4277 19.4982C19.1155 19.3847 18.8373 19.2763 18.8146 19.2505C18.7578 19.2041 19.0019 18.7862 19.0871 18.7862C19.1211 18.7862 19.4958 18.9048 19.9273 19.0493ZM11.5021 20.9273C11.5986 21.0305 11.7406 21.2266 11.82 21.3659L11.962 21.6187L11.8427 21.9179C11.7746 22.083 11.7122 22.2223 11.7065 22.2327C11.6951 22.243 11.3375 22.1656 10.906 22.0676C10.4688 21.9695 10.0657 21.8767 10.0033 21.8663C9.91244 21.856 9.94083 21.8251 10.1282 21.7374C10.4518 21.5826 10.7357 21.3504 11.0082 21.0202C11.1274 20.8706 11.2523 20.7467 11.275 20.7467C11.3034 20.7467 11.4056 20.8293 11.5021 20.9273Z" fill="#E29000"/>
</svg>
