<svg width="29" height="29" viewBox="0 0 29 29" fill="none" xmlns="http://www.w3.org/2000/svg">
<path d="M13.4781 0.0139313C13.3702 0.0252806 13.0352 0.065003 12.74 0.0933762C10.8665 0.297663 8.79424 1.00132 7.11942 2.00006C4.99041 3.27118 3.25881 5.00194 1.98708 7.12993C0.99354 8.78693 0.334965 10.7163 0.0681284 12.7478C-0.0227095 13.4458 -0.0227095 15.5681 0.0681284 16.2661C0.533673 19.8014 2.08927 22.7919 4.72357 25.2377C6.17698 26.594 7.98806 27.6494 9.95811 28.2963C11.5137 28.8127 12.7457 29 14.5 29C15.7944 29 16.3679 28.9489 17.509 28.7163C21.4207 27.9161 24.9123 25.408 27.0129 21.884C28.0065 20.227 28.665 18.2976 28.9319 16.2661C29.0227 15.5681 29.0227 13.4458 28.9319 12.7478C28.665 10.7163 28.0065 8.78693 27.0129 7.12993C25.7412 5.00194 24.0096 3.27118 21.8806 2.00006C20.2398 1.01834 18.2811 0.348735 16.3168 0.0933762C15.8172 0.0252805 13.8301 -0.0257912 13.4781 0.0139313ZM16.7312 1.10914C18.213 1.37017 19.2065 1.69363 20.5067 2.33486C23.9699 4.03725 26.5758 7.17533 27.5863 10.8525C27.9667 12.2314 28.0405 12.8273 28.0405 14.507C28.0405 15.8292 28.0235 16.1015 27.9099 16.7371C27.4047 19.546 26.1897 21.9521 24.2651 23.9496C22.5562 25.7257 20.1887 27.099 17.8383 27.6721C16.5382 27.9899 16.0783 28.041 14.4716 28.041C12.8252 28.0353 12.2063 27.9615 10.8438 27.587C7.16484 26.5826 4.01958 23.9666 2.32204 20.5107C1.66915 19.1885 1.31715 18.0763 1.06167 16.5669C0.914056 15.693 0.914056 13.321 1.06167 12.4471C1.31715 10.9376 1.66915 9.82539 2.32204 8.50319C4.24099 4.59337 7.95399 1.82982 12.2404 1.12049C13.2339 0.955921 13.251 0.955922 14.7271 0.972946C15.7831 0.984295 16.2032 1.01267 16.7312 1.10914Z" fill="white"/>
<path d="M12.2858 3.53219C11.4172 3.69108 10.6564 3.97481 9.93541 4.39473C9.36199 4.73521 8.87941 5.18351 8.87941 5.37644C8.87941 5.45021 9.10651 6.0347 9.39038 6.66459C9.90134 7.81087 9.90134 7.81087 9.90134 8.28186C9.90134 8.74151 9.89566 8.75853 9.73102 8.88337C9.50393 9.04794 8.90212 10.2793 8.62961 11.1419C8.38548 11.8966 8.16974 12.9578 8.08458 13.7636C7.95968 15.029 8.03916 16.7881 8.28329 18.0536C8.32871 18.3033 8.36845 18.7516 8.36845 19.0523C8.36845 20.2156 8.63529 21.1009 9.2087 21.8102L9.39606 22.0485L9.26548 22.128C9.19167 22.1734 8.91916 22.2812 8.658 22.3663C8.03349 22.5706 7.68717 22.8827 7.54523 23.3821C7.36923 23.9949 7.51685 24.5851 7.93129 24.9142C8.13 25.0731 8.19813 25.0901 8.59555 25.1072C9.01567 25.1299 9.05541 25.1185 9.18599 24.9823C9.49825 24.6759 9.28251 24.2106 8.82832 24.2106C8.56716 24.2106 8.42523 24.1652 8.42523 24.0857C8.42523 23.9836 9.2087 24.0744 10.0319 24.273C10.8324 24.4659 10.8778 24.4943 10.7529 24.727C10.7189 24.7837 10.6905 24.9256 10.6848 25.0391C10.6791 25.2036 10.7132 25.2774 10.8324 25.3852C10.98 25.5101 11.0198 25.5157 11.9906 25.5157C13.1999 25.5157 17.0889 25.3739 18.1789 25.2888C20.0127 25.1469 21.1312 24.9483 21.5229 24.7043C22.2837 24.2219 22.647 23.2686 22.4256 22.3266C22.295 21.7648 22.1645 21.5321 21.4321 20.5107L20.7678 19.5857L19.6494 19.1601C18.372 18.6721 18.2471 18.587 17.1173 17.4521C15.3346 15.6759 14.3978 14.104 13.5632 11.4994C13.3134 10.7333 13.2567 10.6085 12.9614 10.2112C12.7798 9.96723 12.74 9.87076 12.74 9.65512C12.74 9.34869 12.7627 9.34302 13.3191 9.52461C13.6768 9.6381 13.7279 9.64377 13.8641 9.57C14.3978 9.27492 14.7328 7.42499 14.5511 5.77934C14.4887 5.20053 14.2445 3.99751 14.1537 3.82159C14.0288 3.60028 13.8471 3.54353 13.1261 3.52651C12.74 3.51516 12.3653 3.51516 12.2858 3.53219ZM13.4156 4.67279C13.5008 4.97922 13.4951 5.02462 13.3532 5.05299C12.1666 5.31402 11.5137 5.58073 10.628 6.17657L10.2988 6.3922L10.1284 6.012C10.0319 5.80204 9.96379 5.59776 9.96947 5.55236C9.99218 5.43887 10.7359 5.00192 11.2469 4.79196C11.826 4.56497 12.2745 4.47418 12.8649 4.4685L13.3589 4.46283L13.4156 4.67279ZM13.637 6.91427C13.603 8.0265 13.4781 8.58262 13.2851 8.5202C12.74 8.35563 12.2688 8.4748 11.9963 8.84932C11.9055 8.97417 11.8316 9.11036 11.8316 9.15576C11.8316 9.25222 11.8089 9.25222 11.5591 9.12171C11.4456 9.06496 11.2412 8.98552 11.1049 8.95147L10.8665 8.88337V8.30456C10.8608 7.96976 10.8268 7.63495 10.787 7.51011C10.7132 7.30582 10.7132 7.29447 10.8722 7.16396C11.5024 6.63621 12.9047 6.012 13.5008 6.00065L13.6654 5.99498L13.637 6.91427ZM10.7132 9.82536C11.3718 9.9956 12.002 10.4382 12.3256 10.9546C12.4051 11.0738 12.6151 11.6242 12.7968 12.1747C13.3134 13.7352 13.8017 14.7623 14.6249 15.9653C15.2778 16.9243 16.4814 18.2409 17.4239 19.0353L17.7077 19.268L17.5374 19.5857C17.4409 19.756 17.3444 19.8979 17.3103 19.8979C17.2081 19.8979 16.419 19.4439 15.891 19.0864C14.0515 17.8436 12.6151 16.3285 11.4853 14.4388C11.2469 14.0416 11.0255 13.7352 10.946 13.7011C10.6678 13.5706 10.2988 13.809 10.2988 14.1154C10.2988 14.4105 11.2696 15.9483 12.0531 16.8903C12.2745 17.157 12.4562 17.3897 12.4562 17.4124C12.4562 17.4407 12.2745 17.4578 12.0587 17.4578C11.5364 17.4578 10.7132 17.5883 9.90702 17.8039C9.55502 17.8947 9.24844 17.9628 9.23141 17.9458C9.17464 17.8834 9.04974 16.9414 8.99864 16.0958C8.85671 13.9962 9.21438 11.8966 9.9865 10.2623C10.1228 9.97858 10.2704 9.74024 10.3101 9.74024C10.3555 9.74024 10.5372 9.77997 10.7132 9.82536ZM14.0572 18.9048C14.7782 19.512 15.8739 20.244 16.629 20.6185C16.9413 20.7774 17.6566 21.0895 18.2187 21.3165C19.1271 21.6854 19.2804 21.7308 19.5813 21.7251C19.797 21.7194 20.1887 21.7818 20.6429 21.8897L21.3639 22.0656L21.4491 22.3266C21.6535 22.9224 21.5059 23.5523 21.0971 23.8304C20.8587 24.0006 20.5748 24.0687 19.7175 24.1822C17.7077 24.4489 11.7749 24.6702 11.8487 24.4773C11.86 24.4432 12.036 23.9722 12.2347 23.4332L12.5981 22.4628L12.8252 22.4287C13.3532 22.3493 15.4027 22.3266 16.5268 22.389C17.8269 22.4571 17.9519 22.4401 18.0711 22.1847C18.1676 21.9804 18.1449 21.8499 18.0029 21.6797C17.878 21.5378 17.8269 21.5208 17.2195 21.4754C16.2259 21.396 13.5349 21.4016 12.8309 21.4811C12.4902 21.5151 12.1382 21.5889 12.0474 21.6343C11.8827 21.7194 11.8771 21.7194 11.5875 21.4243C11.122 20.9477 10.7529 20.8625 10.276 21.1179C10.1284 21.1973 9.98082 21.2484 9.95244 21.2257C9.85024 21.1633 9.60612 20.732 9.49257 20.4142C9.43012 20.227 9.37335 19.8638 9.35064 19.529L9.31657 18.9559L9.82186 18.8026C10.8722 18.4849 11.7295 18.3657 12.7514 18.3941L13.4724 18.4111L14.0572 18.9048ZM19.3996 20.0738C20.132 20.3461 20.1944 20.3859 20.3477 20.6072L20.5123 20.8455L19.99 20.8171C19.5585 20.7944 19.3712 20.7547 18.9 20.5675C18.5877 20.4426 18.3095 20.3235 18.2868 20.2951C18.23 20.244 18.4742 19.7844 18.5593 19.7844C18.5934 19.7844 18.9681 19.9149 19.3996 20.0738ZM10.9744 22.1393C11.0709 22.2528 11.2128 22.4685 11.2923 22.6217L11.4342 22.8997L11.315 23.2289C11.2469 23.4105 11.1844 23.5637 11.1787 23.575C11.1674 23.5864 10.8097 23.5012 10.3782 23.3934C9.94108 23.2856 9.53799 23.1835 9.47554 23.1721C9.3847 23.1608 9.41309 23.1267 9.60044 23.0303C9.92405 22.86 10.2079 22.6047 10.4804 22.2415C10.5997 22.0769 10.7246 21.9407 10.7473 21.9407C10.7757 21.9407 10.8778 22.0315 10.9744 22.1393Z" fill="#E29000"/>
</svg>
