<?xml version="1.0" standalone="no"?>
<!DOCTYPE svg PUBLIC "-//W3C//DTD SVG 20010904//EN"
 "http://www.w3.org/TR/2001/REC-SVG-20010904/DTD/svg10.dtd">
<svg version="1.0" xmlns="http://www.w3.org/2000/svg"
 width="512.000000pt" height="512.000000pt" viewBox="0 0 512.000000 512.000000"
 preserveAspectRatio="xMidYMid meet">

<g transform="translate(0.000000,512.000000) scale(0.100000,-0.100000)"
fill="#000000" stroke="none">
<path d="M2380 5114 c-19 -2 -78 -9 -130 -14 -330 -36 -695 -160 -990 -336
-375 -224 -680 -529 -904 -904 -175 -292 -291 -632 -338 -990 -16 -123 -16
-497 0 -620 82 -623 356 -1150 820 -1581 256 -239 575 -425 922 -539 274 -91
491 -124 800 -124 228 0 329 9 530 50 689 141 1304 583 1674 1204 175 292 291
632 338 990 16 123 16 497 0 620 -47 358 -163 698 -338 990 -224 375 -529 680
-904 904 -289 173 -634 291 -980 336 -88 12 -438 21 -500 14z m573 -193 c261
-46 436 -103 665 -216 610 -300 1069 -853 1247 -1501 67 -243 80 -348 80 -644
0 -233 -3 -281 -23 -393 -89 -495 -303 -919 -642 -1271 -301 -313 -718 -555
-1132 -656 -229 -56 -310 -65 -593 -65 -290 1 -399 14 -639 80 -648 177 -1202
638 -1501 1247 -115 233 -177 429 -222 695 -26 154 -26 572 0 726 45 266 107
462 222 695 338 689 992 1176 1747 1301 175 29 178 29 438 26 186 -2 260 -7
353 -24z"/>
<path d="M2170 4494 c-153 -28 -287 -78 -414 -152 -101 -60 -186 -139 -186
-173 0 -13 40 -116 90 -227 90 -202 90 -202 90 -285 0 -81 -1 -84 -30 -106
-40 -29 -146 -246 -194 -398 -43 -133 -81 -320 -96 -462 -22 -223 -8 -533 35
-756 8 -44 15 -123 15 -176 0 -205 47 -361 148 -486 l33 -42 -23 -14 c-13 -8
-61 -27 -107 -42 -110 -36 -171 -91 -196 -179 -31 -108 -5 -212 68 -270 35
-28 47 -31 117 -34 74 -4 81 -2 104 22 55 54 17 136 -63 136 -46 0 -71 8 -71
22 0 18 138 2 283 -33 141 -34 149 -39 127 -80 -6 -10 -11 -35 -12 -55 -1 -29
5 -42 26 -61 26 -22 33 -23 204 -23 213 0 898 25 1090 40 323 25 520 60 589
103 134 85 198 253 159 419 -23 99 -46 140 -175 320 l-117 163 -197 75 c-225
86 -247 101 -446 301 -314 313 -479 590 -626 1049 -44 135 -54 157 -106 227
-32 43 -39 60 -39 98 0 54 4 55 102 23 63 -20 72 -21 96 -8 94 52 153 378 121
668 -11 102 -54 314 -70 345 -22 39 -54 49 -181 52 -68 2 -134 2 -148 -1z
m199 -201 c15 -54 14 -62 -11 -67 -209 -46 -324 -93 -480 -198 l-58 -38 -30
67 c-17 37 -29 73 -28 81 4 20 135 97 225 134 102 40 181 56 285 57 l87 1 10
-37z m39 -395 c-6 -196 -28 -294 -62 -283 -96 29 -179 8 -227 -58 -16 -22 -29
-46 -29 -54 0 -17 -4 -17 -48 6 -20 10 -56 24 -80 30 l-42 12 0 102 c-1 59 -7
118 -14 140 -13 36 -13 38 15 61 111 93 358 203 463 205 l29 1 -5 -162z m-515
-513 c116 -30 227 -108 284 -199 14 -21 51 -118 83 -215 91 -275 177 -456 322
-668 115 -169 327 -401 493 -541 l50 -41 -30 -56 c-17 -30 -34 -55 -40 -55
-18 0 -157 80 -250 143 -324 219 -577 486 -776 819 -42 70 -81 124 -95 130
-49 23 -114 -19 -114 -73 0 -52 171 -323 309 -489 39 -47 71 -88 71 -92 0 -5
-32 -8 -70 -8 -92 0 -237 -23 -379 -61 -62 -16 -116 -28 -119 -25 -10 11 -32
177 -41 326 -25 370 38 740 174 1028 24 50 50 92 57 92 8 0 40 -7 71 -15z
m589 -1600 c127 -107 320 -236 453 -302 55 -28 181 -83 280 -123 160 -65 187
-73 240 -72 38 1 107 -10 187 -29 l127 -31 15 -46 c36 -105 10 -216 -62 -265
-42 -30 -92 -42 -243 -62 -354 -47 -1399 -86 -1386 -52 2 6 33 89 68 184 l64
171 40 6 c93 14 454 18 652 7 229 -12 251 -9 272 36 17 36 13 59 -12 89 -22
25 -31 28 -138 36 -175 14 -649 13 -773 -1 -60 -6 -122 -19 -138 -27 -29 -15
-30 -15 -81 37 -82 84 -147 99 -231 54 -26 -14 -52 -23 -57 -19 -18 11 -61 87
-81 143 -11 33 -21 97 -25 156 l-6 101 89 27 c185 56 336 77 516 72 l127 -3
103 -87z m941 -206 c129 -48 140 -55 167 -94 l29 -42 -92 5 c-76 4 -109 11
-192 44 -55 22 -104 43 -108 48 -10 9 33 90 48 90 6 0 72 -23 148 -51z m-1484
-364 c17 -20 42 -58 56 -85 l25 -49 -21 -58 c-12 -32 -23 -59 -24 -61 -2 -2
-65 13 -141 32 -77 19 -148 37 -159 39 -16 2 -11 8 22 25 57 30 107 75 155
139 21 29 43 53 47 53 5 0 23 -16 40 -35z"/>
</g>
</svg>
