<?xml version="1.0" encoding="utf-8"?>
<!-- Generator: Adobe Illustrator 18.1.1, SVG Export Plug-In . SVG Version: 6.00 Build 0)  -->
<svg version="1.1" id="Layer_1" xmlns="http://www.w3.org/2000/svg" xmlns:xlink="http://www.w3.org/1999/xlink" x="0px" y="0px"
	 width="29px" height="29px" viewBox="-525 946 29 29" enable-background="new -525 946 29 29" xml:space="preserve">
<g id="Layer_1_1_">
	<circle fill="none" stroke="#009588" stroke-width="2.0708" stroke-miterlimit="10" cx="-510.5" cy="960.5" r="13.3"/>
	
		<line display="none" fill="none" stroke="#009588" stroke-width="2.0708" stroke-miterlimit="10" x1="-510.5" y1="960.4" x2="-510.5" y2="971"/>
	
		<circle display="none" fill="none" stroke="#009588" stroke-width="0.1479" stroke-miterlimit="10" cx="-510.5" cy="960.5" r="9.6"/>
	<path display="none" fill="#009588" d="M-500.9,959.4h-8.5c-0.2-0.2-0.4-0.3-0.6-0.4l-4.3-9.2l-1.9,0.9l4.3,9.2
		c-0.1,0.2-0.1,0.4-0.1,0.6c0,0.8,0.7,1.5,1.5,1.5c0.4,0,0.8-0.2,1.1-0.5h8.5V959.4z"/>
	<path display="none" fill="#009588" d="M-509,960.5c0-0.6-0.3-1-0.8-1.3l-2.3-9.9l-2,0.5l2.3,9.9c-0.2,0.2-0.3,0.5-0.3,0.8
		c0,0.2,0,0.4,0.1,0.6l-3.3,7.8l1.9,0.8l3.3-7.8C-509.4,961.7-509,961.1-509,960.5z"/>
	<path display="none" fill="#009588" d="M-509.5,959.3l-0.6-8.5l-2.1,0.2l0.6,8.4l-9.8-1.2l-0.3,2.1l10,1.3c0.3,0.4,0.7,0.6,1.2,0.6
		c0.8,0,1.5-0.7,1.5-1.5C-509,960-509.2,959.6-509.5,959.3z"/>
	<path display="none" fill="#009588" d="M-509,960.5c0-0.8-0.7-1.5-1.5-1.5c-0.5,0-1,0.3-1.3,0.7l-9.9,1.7l0.3,2l9.8-1.6v8.4h2.1
		v-8.5C-509.2,961.3-509,960.9-509,960.5z"/>
	<path display="none" fill="#009588" d="M-505.5,968.7l-3.6-7.7c0.1-0.2,0.1-0.4,0.1-0.6c0-0.8-0.7-1.5-1.5-1.5
		c-0.8,0-1.5,0.7-1.5,1.5c0,0.2,0,0.4,0.1,0.6l-4.3,9.1l1.9,0.9l3.9-8.1l3.2,6.7L-505.5,968.7z"/>
	<path fill="#009588" d="M-509,960.2c-0.1-0.5-0.4-0.9-0.9-1.1l-2.5-9.1l-2,0.6l2.6,9.2c-0.1,0.2-0.2,0.4-0.2,0.7
		c0,0.8,0.7,1.5,1.5,1.5c0.1,0,0.2,0,0.4,0l7,4.8l1.2-1.7L-509,960.2z"/>
	<circle display="none" fill="#009588" cx="-510.5" cy="960.5" r="1.5"/>
	<path display="none" fill="#009588" d="M-509,960.5c0-0.6-0.4-1.2-1-1.4l-3.3-8.9l-1.9,0.7l3.4,9c-0.1,0.2-0.1,0.4-0.1,0.6
		c0,0.4,0.2,0.8,0.5,1.1l0,8.7l2.1,0l0-8.7C-509.2,961.3-509,960.9-509,960.5z"/>
</g>
<g id="Layer_2" display="none">
	
		<circle display="inline" fill="#009588" stroke="#009588" stroke-width="2.0708" stroke-miterlimit="10" cx="-510.5" cy="960.5" r="13.3"/>
	<circle fill="none" stroke="#009588" stroke-width="0.1479" stroke-miterlimit="10" cx="-510.5" cy="960.6" r="11.2"/>
	<path fill="#FFFFFF" d="M-509.6,959.2l-2.4-10.6l-2.1,0.5l2.4,10.3c-0.3,0.3-0.4,0.7-0.4,1.1c0,0.3,0.1,0.6,0.3,0.9l-3.5,8.1l2,0.9
		l3.6-8.5c0.5-0.3,0.8-0.8,0.8-1.4C-509,959.9-509.3,959.5-509.6,959.2z"/>
	<path display="inline" fill="#FFFFFF" d="M-509.2,960.5c0-0.8-0.7-1.5-1.5-1.5c-0.3,0-0.5,0.1-0.7,0.2l-9.6-3.1l-0.6,2l9.6,3.1
		c0.1,0.3,0.3,0.5,0.5,0.6v8.4h2.1v-8.8C-509.3,961.2-509.2,960.9-509.2,960.5z"/>
</g>
</svg>
