<svg width="29" height="29" viewBox="0 0 29 29" fill="none" xmlns="http://www.w3.org/2000/svg">
<path d="M14.5 27.7999C21.8454 27.7999 27.8 21.8453 27.8 14.4999C27.8 7.15455 21.8454 1.19995 14.5 1.19995C7.15461 1.19995 1.20001 7.15455 1.20001 14.4999C1.20001 21.8453 7.15461 27.7999 14.5 27.7999Z" stroke="#009588" stroke-width="2.0708" stroke-miterlimit="10"/>
<path d="M16 14.2C15.9 13.7 15.6 13.3 15.1 13.1L12.6 4L10.6 4.59998L13.2 13.8C13.1 14 13 14.2 13 14.5C13 15.3 13.7 16 14.5 16C14.6 16 14.7 16 14.9 16L21.9 20.8L23.1 19.1L16 14.2Z" fill="#E29000"/>
</svg>
