<svg width="29" height="29" viewBox="0 0 29 29" fill="none" xmlns="http://www.w3.org/2000/svg">
<path d="M14.5 27.8C21.8454 27.8 27.8 21.8453 27.8 14.5C27.8 7.15457 21.8454 1.19995 14.5 1.19995C7.15461 1.19995 1.2 7.15457 1.2 14.5C1.2 21.8453 7.15461 27.8 14.5 27.8Z" stroke="#009588" stroke-width="2.0708" stroke-miterlimit="10"/>
<path d="M24.1 13.4H15.6C15.4 13.2 15.2 13.1 15 13L10.7 3.80005L8.8 4.70004L13.1 13.9C13 14.1 13 14.3 13 14.5C13 15.3 13.7 16 14.5 16C14.9 16 15.3 15.8 15.6 15.5H24.1V13.4V13.4Z" fill="#E29000"/>
<path d="M14.5 16C15.3284 16 16 15.3284 16 14.5C16 13.6716 15.3284 13 14.5 13C13.6716 13 13 13.6716 13 14.5C13 15.3284 13.6716 16 14.5 16Z" fill="#E29000"/>
</svg>
