<svg width="29" height="29" viewBox="0 0 29 29" fill="none" xmlns="http://www.w3.org/2000/svg">
<path d="M14.5 27.8C21.8454 27.8 27.8 21.8453 27.8 14.5C27.8 7.15457 21.8454 1.19995 14.5 1.19995C7.15461 1.19995 1.2 7.15457 1.2 14.5C1.2 21.8453 7.15461 27.8 14.5 27.8Z" fill="#009588" stroke="#009588" stroke-width="2.0708" stroke-miterlimit="10"/>
<path d="M15.4 13.1999L13 2.59985L10.9 3.09985L13.3 13.3999C13 13.6999 12.9 14.0999 12.9 14.4999C12.9 14.7999 13 15.0999 13.2 15.3999L9.7 23.4999L11.7 24.3999L15.3 15.8999C15.8 15.5999 16.1 15.0999 16.1 14.4999C16 13.8999 15.7 13.4999 15.4 13.1999Z" fill="white"/>
</svg>
