<svg width="29" height="29" viewBox="0 0 29 29" fill="none" xmlns="http://www.w3.org/2000/svg">
<path d="M14.5 27.8C21.8454 27.8 27.8 21.8453 27.8 14.5C27.8 7.15457 21.8454 1.19995 14.5 1.19995C7.15463 1.19995 1.20001 7.15457 1.20001 14.5C1.20001 21.8453 7.15463 27.8 14.5 27.8Z" fill="#009588"/>
<path d="M14.5 28.8C6.60002 28.8 0.200012 22.4 0.200012 14.5C0.200012 6.59995 6.60002 0.199951 14.5 0.199951C22.4 0.199951 28.8 6.59995 28.8 14.5C28.8 22.4 22.4 28.8 14.5 28.8ZM14.5 2.19995C7.70002 2.19995 2.20001 7.69995 2.20001 14.5C2.20001 21.3 7.70002 26.8 14.5 26.8C21.3 26.8 26.8 21.3 26.8 14.5C26.8 7.69995 21.3 2.19995 14.5 2.19995Z" fill="#009588"/>
<path d="M15.8 14.4999C15.8 13.6999 15.1 12.9999 14.3 12.9999C14 12.9999 13.8 13.0999 13.6 13.1999L4.00002 10.0999L3.40002 12.0999L13 15.1999C13.1 15.4999 13.3 15.6999 13.5 15.7999V24.1999H15.6V15.3999C15.7 15.1999 15.8 14.8999 15.8 14.4999Z" fill="white"/>
</svg>
