<svg width="29" height="29" viewBox="0 0 29 29" fill="none" xmlns="http://www.w3.org/2000/svg">
<path d="M14.5 27.7999C21.8454 27.7999 27.8 21.8453 27.8 14.4999C27.8 7.15455 21.8454 1.19995 14.5 1.19995C7.15461 1.19995 1.20001 7.15455 1.20001 14.4999C1.20001 21.8453 7.15461 27.7999 14.5 27.7999Z" stroke="#009588" stroke-width="2.0708" stroke-miterlimit="10"/>
<path d="M16 14.4999C16 13.8999 15.6 13.2999 15 13.0999L11.7 4.19995L9.79999 4.89996L13.2 13.9C13.1 14.1 13.1 14.2999 13.1 14.4999C13.1 14.8999 13.3 15.2999 13.6 15.5999V24.2999H15.7V15.5999C15.8 15.2999 16 14.8999 16 14.4999Z" fill="#E29000"/>
</svg>
