<svg width="29" height="29" viewBox="0 0 29 29" fill="none" xmlns="http://www.w3.org/2000/svg">
<path d="M14.5 27.8C21.8454 27.8 27.8 21.8453 27.8 14.5C27.8 7.15457 21.8454 1.19995 14.5 1.19995C7.15461 1.19995 1.2 7.15457 1.2 14.5C1.2 21.8453 7.15461 27.8 14.5 27.8Z" stroke="#009588" stroke-width="2.0708" stroke-miterlimit="10"/>
<path d="M15.5 13.3L14.9 4.80005L12.8 5.00005L13.4 13.4L3.6 12.2L3.3 14.3L13.3 15.6C13.6 16 14 16.2 14.5 16.2C15.3 16.2 16 15.5 16 14.7C16 14 15.8 13.6 15.5 13.3Z" fill="#E29000"/>
</svg>
