<svg width="29" height="29" viewBox="0 0 29 29" fill="none" xmlns="http://www.w3.org/2000/svg">
<path d="M14.5 27.8C21.8454 27.8 27.8 21.8453 27.8 14.5C27.8 7.15457 21.8454 1.19995 14.5 1.19995C7.15461 1.19995 1.2 7.15457 1.2 14.5C1.2 21.8453 7.15461 27.8 14.5 27.8Z" stroke="#009588" stroke-width="2.0708" stroke-miterlimit="10"/>
<path d="M19.5 22.6999L15.9 14.9999C16 14.7999 16 14.5999 16 14.3999C16 13.5999 15.3 12.8999 14.5 12.8999C13.7 12.8999 13 13.5999 13 14.3999C13 14.5999 13 14.7999 13.1 14.9999L8.8 24.0999L10.7 24.9999L14.6 16.8999L17.8 23.5999L19.5 22.6999Z" fill="#E29000"/>
</svg>
